# xmcd
#
# Track frame offsets: 
#        150
#        14998
#        28993
#        45746
#        60430
#        74876
#        86015
#        97632
#        114295
#        124659
#        142299
#        156811
#        172563
#        186736
#        204118
#        217159
#
# Disc length: 3097 seconds
#
# Revision: 1
# Processed by: cddbd v1.5.2PL0 Copyright (c) Steve Scherf et al.
# Submitted via: ExactAudioCopy v0.99pb5
#
DISCID=eb0c1710
DTITLE=Javier Bátiz - 16 Grandes Exitos
DYEAR=1900
DGENRE=Rock
TTITLE0=La Montaña
TTITLE1=Me gusta el Rock
TTITLE2=La Casa del Sol Naciente
TTITLE3=Charleena
TTITLE4=Si Etuvieras Aqui
TTITLE5=Si Tu te Acuerdas de Mi
TTITLE6=Fue Solo un Sueño
TTITLE7=Tierra de Nadie
TTITLE8=Quiero Volver a Ser tu Amigo
TTITLE9=Lobo Herido
TTITLE10=Soy el Amor
TTITLE11=Pacifico Jardin
TTITLE12=Quien es El
TTITLE13=Sentimientos Tiernos
TTITLE14=Navidad en Tijuana
TTITLE15=El Vuelo del Angel
EXTD=
EXTT0=
EXTT1=
EXTT2=
EXTT3=
EXTT4=
EXTT5=
EXTT6=
EXTT7=
EXTT8=
EXTT9=
EXTT10=
EXTT11=
EXTT12=
EXTT13=
EXTT14=
EXTT15=
PLAYORDER=
